<svg id="Layer_1" enable-background="new 0 0 512 512" height="512" viewBox="0 0 512 512" width="512" xmlns="http://www.w3.org/2000/svg"><g><path d="m504.5 245.595c-.14 52.3-35.48 96.27-83.5 109.48-9.71 2.68-19.95 4.1-30.52 4.07h-289.75c-3.28 0-6.53-.17-9.73-.51-43.28-4.47-78.3-38.73-82.97-82.94-5.42-51.22 31.66-97.13 82.81-102.55-.31-3.8-.46-7.38-.46-10.88.33-73.51 52.04-136.73 123.94-151.55 3.68-.76 7.35-1.38 11.01-1.86 80.02-10.64 155.8 42.37 172.31 122.78 60.15 3.63 107.02 53.62 106.86 113.96z" fill="#99e7fa"/><path d="m504.5 245.595c-.14 52.3-35.48 96.27-83.5 109.48-9.71 2.68-19.95 4.1-30.52 4.07h-8.57c5.15-.69 10.19-1.72 15.09-3.07 48.02-13.21 83.36-57.18 83.5-109.48.16-60.34-46.71-104.33-106.86-107.96-14.85-72.31-77.62-126.9-148.31-129.78 80.02-10.64 155.8 42.37 172.31 122.78 60.15 3.63 107.02 53.62 106.86 113.96z" fill="#4dd4f7"/><path d="m421 214.595v140.48c-9.71 2.68-19.95 4.1-30.52 4.07h-289.75c-3.28 0-6.53-.17-9.73-.51v-144.04c0-8.82 7.15-15.97 15.97-15.97h298.06c8.82 0 15.97 7.15 15.97 15.97z" fill="#4dd4f7"/><g><path d="m111 218.625h290v88.57h-290z" fill="#eef0f5"/><path d="m401 218.625v88.57h-290v-20h260.21c5.41 0 9.79-4.38 9.79-9.79v-58.78z" fill="#dae1ea"/><g><path d="m141.126 247.91h30v29.998h-30z" fill="#00cec8"/><path d="m201.126 247.91h30v29.998h-30z" fill="#ff4656"/></g></g><g><path d="m7.5 474.53h30v29.965h-30z" fill="#ff4656"/><path d="m474.5 474.53h30v29.965h-30z" fill="#ff4656" transform="matrix(-1 0 0 -1 979.001 979.025)"/><g fill="#00cec8"><path d="m142.683 410.024h30v29.965h-30z"/><path d="m339.317 410.025h30v29.965h-30z" transform="matrix(-1 0 0 -1 708.635 850.014)"/></g></g></g><g><path d="m18.377 323.935c1.461 2.072 3.78 3.18 6.137 3.18 1.493 0 3.001-.445 4.314-1.37 3.386-2.387 4.196-7.065 1.81-10.451-8.378-11.886-13.619-25.851-15.155-40.382-4.971-47.026 29.188-89.334 76.146-94.312 4.05-.429 7.017-4.011 6.685-8.07-.29-3.535-.43-6.894-.43-10.235.152-33.836 12.026-66.888 33.435-93.066 21.407-26.176 51.422-44.347 84.515-51.167 48.668-10.028 98.785 4.964 134.063 40.103 2.935 2.921 7.684 2.915 10.606-.021 2.924-2.935 2.914-7.684-.021-10.607-38.857-38.703-94.063-55.213-147.676-44.166-36.455 7.512-69.519 27.528-93.099 56.362-23.579 28.832-36.656 65.231-36.823 102.529 0 1.476.024 2.947.072 4.428-51.482 9.167-87.976 56.947-82.39 109.799 1.805 17.068 7.964 33.475 17.811 47.446z"/><path d="m339.317 402.525c-4.143 0-7.5 3.358-7.5 7.5v29.965c0 4.142 3.357 7.5 7.5 7.5h30c4.143 0 7.5-3.358 7.5-7.5v-7.482h127.683c4.143 0 7.5-3.358 7.5-7.5s-3.357-7.5-7.5-7.5h-127.683v-7.482c0-4.142-3.357-7.5-7.5-7.5h-7.5v-35.883h28.645.341c32.249-.001 62.591-12.534 85.466-35.315 22.953-22.858 35.643-53.299 35.731-85.713.17-62.337-46.929-114.423-108.237-120.995-4.367-18.121-11.698-35.154-21.831-50.7-2.262-3.471-6.909-4.449-10.379-2.188-3.47 2.262-4.449 6.909-2.188 10.378 10.122 15.529 17.164 32.699 20.932 51.031.683 3.322 3.51 5.772 6.895 5.977 56.12 3.392 99.962 50.153 99.809 106.456-.078 28.412-11.199 55.092-31.316 75.126-20.044 19.962-46.625 30.943-74.902 30.943-.099 0-.2 0-.299 0h-28.665v-36.947h39.181c4.143 0 7.5-3.358 7.5-7.5v-88.469c0-4.142-3.357-7.5-7.5-7.5h-212.741c-4.142 0-7.5 3.358-7.5 7.5s3.358 7.5 7.5 7.5h205.241v73.469h-275v-73.469h35.173c4.142 0 7.5-3.358 7.5-7.5s-3.358-7.5-7.5-7.5h-42.673c-4.142 0-7.5 3.358-7.5 7.5v88.469c0 4.142 3.358 7.5 7.5 7.5h39.183v36.947h-49.459c-17.443.043-34.196-5.182-48.521-15.034-3.413-2.348-8.082-1.483-10.43 1.93-2.347 3.413-1.483 8.083 1.93 10.43 16.814 11.564 36.498 17.674 56.928 17.674h49.552v35.882h-7.5c-4.142 0-7.5 3.358-7.5 7.5v7.482h-127.683c-4.142 0-7.5 3.358-7.5 7.5s3.358 7.5 7.5 7.5h127.683v7.482c0 4.142 3.358 7.5 7.5 7.5h30c4.142 0 7.5-3.358 7.5-7.5v-29.965c0-4.142-3.358-7.5-7.5-7.5h-7.5v-35.882h50.614v98.569l-16.818 16.801h-153.979v-7.482c0-4.142-3.358-7.5-7.5-7.5h-30c-4.142 0-7.5 3.358-7.5 7.5v29.964c0 4.142 3.358 7.5 7.5 7.5h30c4.142 0 7.5-3.358 7.5-7.5v-7.482h157.087c2.086 0 4.031-.865 5.419-2.317l20.938-20.917c1.474-1.391 2.353-3.352 2.353-5.455v-101.68h50.406v101.682c0 2.089.867 4.036 2.322 5.425l20.959 20.939c1.4 1.468 3.355 2.324 5.429 2.324h157.087v7.482c0 4.142 3.357 7.5 7.5 7.5h30c4.143 0 7.5-3.358 7.5-7.5v-29.964c0-4.142-3.357-7.5-7.5-7.5h-30c-4.143 0-7.5 3.358-7.5 7.5v7.482h-153.979l-16.817-16.801v-98.569h50.614v35.883h-7.501zm-174.134 29.965h-15v-14.965h15zm-135.183 64.505h-15v-14.964h15zm185.797-145.352h-50.614v-36.947h50.614zm65.406 0h-50.406v-36.947h50.406zm200.797 130.388h15v14.964h-15zm-185.797-130.388v-36.947h50.614v36.947zm65.614 65.882v14.965h-15v-14.965z"/><path d="m133.626 247.979v29.964c0 4.142 3.358 7.5 7.5 7.5h30c4.142 0 7.5-3.358 7.5-7.5v-29.964c0-4.142-3.358-7.5-7.5-7.5h-30c-4.142 0-7.5 3.358-7.5 7.5zm15 7.5h15v14.964h-15z"/><path d="m231.126 285.443c4.142 0 7.5-3.358 7.5-7.5v-29.964c0-4.142-3.358-7.5-7.5-7.5h-30c-4.142 0-7.5 3.358-7.5 7.5v29.964c0 4.142 3.358 7.5 7.5 7.5zm-22.5-29.964h15v14.964h-15z"/><path d="m173.5 172.679v-51.916c0-4.142-3.358-7.5-7.5-7.5s-7.5 3.358-7.5 7.5v51.916c0 4.142 3.358 7.5 7.5 7.5s7.5-3.358 7.5-7.5z"/><path d="m196 113.263c-4.142 0-7.5 3.358-7.5 7.5v51.916c0 4.142 3.358 7.5 7.5 7.5h30c4.142 0 7.5-3.358 7.5-7.5v-51.916c0-4.142-3.358-7.5-7.5-7.5zm22.5 51.916h-15v-36.916h15z"/><path d="m248.5 120.763v51.916c0 4.142 3.358 7.5 7.5 7.5s7.5-3.358 7.5-7.5v-51.916c0-4.142-3.358-7.5-7.5-7.5s-7.5 3.358-7.5 7.5z"/><path d="m338.5 120.763v51.916c0 4.142 3.357 7.5 7.5 7.5s7.5-3.358 7.5-7.5v-51.916c0-4.142-3.357-7.5-7.5-7.5s-7.5 3.358-7.5 7.5z"/><path d="m286 113.263c-4.142 0-7.5 3.358-7.5 7.5v51.916c0 4.142 3.358 7.5 7.5 7.5h30c4.143 0 7.5-3.358 7.5-7.5v-51.916c0-4.142-3.357-7.5-7.5-7.5zm22.5 51.916h-15v-36.916h15z"/><path d="m279.12 262.956c0-4.143-3.358-7.501-7.5-7.501s-7.5 3.358-7.5 7.501 3.358 7.501 7.5 7.501 7.5-3.359 7.5-7.501z"/><path d="m322.62 262.956c0-4.143-3.358-7.501-7.5-7.501s-7.5 3.358-7.5 7.501 3.358 7.501 7.5 7.501 7.5-3.359 7.5-7.501z"/><path d="m366.12 262.956c0-4.143-3.358-7.501-7.5-7.501s-7.5 3.358-7.5 7.501 3.358 7.501 7.5 7.501 7.5-3.359 7.5-7.501z"/></g></svg>