<svg id="Layer_1" enable-background="new 0 0 512 512" height="512" viewBox="0 0 512 512" width="512" xmlns="http://www.w3.org/2000/svg"><g><path d="m427.846 112.28v200.38c0 94.9-171.85 191.84-171.85 191.84s-2.68-1.52-7.38-4.35c-14.1-8.51-46.32-28.91-78.54-55.98-42.96-36.1-85.92-84.06-85.92-131.51v-200.38c0-10.27 8.02-18.8 18.27-19.34 86.32-4.56 153.57-41.07 153.57-85.44 0 .26 0 .52.01.77v.27c.003.164.016.33.021.494 1.524 43.673 68.228 79.396 153.539 83.906 10.26.54 18.28 9.07 18.28 19.34z" fill="#2bbb66"/><path d="m427.846 112.28v200.38c0 94.9-171.85 191.84-171.85 191.84s-2.68-1.52-7.38-4.35c31.22-20.94 162.38-113.89 162.38-197.49v-176.38c0-10.27-7.23-18.8-16.48-19.34-76.952-4.503-137.112-53.909-138.489-97.906 1.524 43.673 68.228 79.396 153.539 83.906 10.26.54 18.28 9.07 18.28 19.34z" fill="#249e55"/><g><path d="m364.995 123.07c-30.69-5.39-58.75-14.72-81.5-27.28-10.93-6.04-19.99-12.41-27.5-18.89-7.5 6.48-16.56 12.85-27.49 18.89-29.49 16.28-67.87 27.12-109.35 31.01v185.86c0 16.06 9.54 51.02 73.44 104.71 21.29 17.89 42.63 32.72 58 42.71 1.89 1.23 3.69 2.38 5.39 3.46 15.72-9.99 40.13-26.51 64.18-46.81 63.24-53.35 72.68-88.11 72.68-104.07v-185.86c-9.47-.89-18.769-2.14-27.85-3.73z" fill="#eef0f5"/></g><g><path d="m364.995 123.07v186.59c0 15.96-7.93 50.72-61.07 104.07-19.91 19.99-40.1 36.32-53.33 46.35 1.89 1.23 3.69 2.38 5.39 3.46 15.72-9.99 40.13-26.51 64.18-46.81 63.24-53.35 72.68-88.11 72.68-104.07v-185.86c-9.47-.89-18.769-2.14-27.85-3.73z" fill="#dae1ea"/></g><g><path d="m189.775 183.19h132.42v132.41h-132.42z" fill="#f9d11f"/><path d="m234.939 244.308 21.046-10.166 21.045 10.166v-61.113h-42.091z" fill="#ff4656"/><path d="m322.195 183.19v132.41h-132.42v-20h100.95c5.78 0 10.47-4.69 10.47-10.47v-101.94z" fill="#ffa402"/></g></g><g><path d="m427.844 305.156c-4.143 0-7.5 3.357-7.5 7.5 0 81.946-139.676 168.515-164.344 183.158-24.668-14.643-164.344-101.211-164.344-183.158v-54.128c0-4.143-3.358-7.5-7.5-7.5s-7.5 3.357-7.5 7.5v54.128c0 41.678 29.809 87.857 88.598 137.254 22.473 18.883 44.914 34.476 59.782 44.231 8.42 5.524 15.363 9.809 19.706 12.429 8.995 5.43 8.995 5.43 11.258 5.43 1.293 0 2.565-.335 3.691-.971 7.172-4.053 175.652-100.379 175.652-198.373.001-4.142-3.356-7.5-7.499-7.5z"/><path d="m409.965 85.453c-82.13-4.342-146.465-38.583-146.465-77.953 0-4.143-3.358-7.5-7.5-7.5s-7.5 3.357-7.5 7.5c0 39.371-64.335 73.611-146.466 77.953-14.231.752-25.378 12.537-25.378 26.831v111.731c0 4.143 3.358 7.5 7.5 7.5s7.5-3.357 7.5-7.5v-111.731c0-6.315 4.906-11.521 11.17-11.853 43.06-2.275 82.971-12.475 112.383-28.719 19.108-10.552 32.948-23.216 40.791-37.02 7.843 13.804 21.683 26.468 40.791 37.02 29.412 16.244 69.324 26.443 112.384 28.719 6.264.331 11.17 5.537 11.17 11.853v165.903c0 4.143 3.357 7.5 7.5 7.5s7.5-3.357 7.5-7.5v-165.903c-.001-14.294-11.148-26.079-25.38-26.831z"/><path d="m119.155 184.54c-4.142 0-7.5 3.357-7.5 7.5v120.616c0 21.215 13.205 57.6 76.113 110.457 24.084 20.236 48.204 36.598 64.196 46.76 1.228.78 2.625 1.17 4.022 1.17 1.398 0 2.797-.391 4.024-1.171 16.296-10.361 40.799-26.996 64.989-47.405 62.272-52.543 75.344-88.717 75.344-109.811v-185.852c0-3.87-2.945-7.105-6.799-7.467-40.319-3.787-78.114-14.482-106.424-30.116-9.916-5.477-18.737-11.531-26.219-17.995-2.816-2.434-6.99-2.434-9.807 0-7.482 6.465-16.304 12.519-26.218 17.995-28.31 15.634-66.105 26.329-106.424 30.116-3.854.361-6.799 3.597-6.799 7.467v30.102c0 4.143 3.358 7.5 7.5 7.5s7.5-3.357 7.5-7.5v-23.336c40.237-4.52 76.582-15.264 105.474-31.219 8.752-4.834 16.755-10.108 23.87-15.728 7.113 5.618 15.118 10.894 23.87 15.728 28.893 15.956 65.237 26.699 105.475 31.219v179.086c0 35.442-48.965 80.583-70.018 98.346-21.641 18.26-43.582 33.442-59.341 43.632-15.47-10-37.052-24.926-58.568-43.005-21.276-17.877-70.762-63.308-70.762-98.973v-120.616c.002-4.143-3.356-7.5-7.498-7.5z"/><path d="m322.195 212.453c4.143 0 7.5-3.357 7.5-7.5v-21.764c0-4.143-3.357-7.5-7.5-7.5h-132.416c-4.142 0-7.5 3.357-7.5 7.5v132.403c0 4.143 3.358 7.5 7.5 7.5h132.416c4.143 0 7.5-3.357 7.5-7.5v-76.434c0-4.143-3.357-7.5-7.5-7.5s-7.5 3.357-7.5 7.5v68.934h-117.416v-117.403h30.162v53.613c0 2.581 1.327 4.98 3.514 6.353 1.214.762 2.598 1.147 3.987 1.147 1.112 0 2.228-.247 3.261-.746l17.784-8.59 17.784 8.59c2.322 1.122 5.061.971 7.248-.401s3.514-3.771 3.514-6.353v-53.613h30.162v14.264c0 4.143 3.357 7.5 7.5 7.5zm-52.662 19.899-10.284-4.968c-1.03-.497-2.146-.746-3.262-.746s-2.231.249-3.262.746l-10.283 4.968v-41.662h27.091z"/><path d="m273.779 270.834h-35.583c-4.142 0-7.5 3.357-7.5 7.5s3.358 7.5 7.5 7.5h35.583c4.143 0 7.5-3.357 7.5-7.5s-3.358-7.5-7.5-7.5z"/></g></svg>