<svg height="496pt" viewBox="0 0 496 496.00322" width="496pt" xmlns="http://www.w3.org/2000/svg"><path d="m82 88.082031c-1.277344-5.117187-2-10.558593-2-16.078125 0-35.359375 28.640625-64 64-64 28.402344 0 52.402344 18.480469 60.800781 44 5.839844-2.5625 12.402344-4 19.199219-4 12.640625 0 24.160156 4.878906 32.722656 12.878906-14.242187 19.441407-23.199218 42.878907-24.5625 68.160157-.71875 13.519531.722656 26.640625 4 38.960937h-156.160156c-22.078125 0-40-17.921875-40-40 0-22.082031 17.921875-40 40-40 .640625 0 1.363281 0 2 .078125zm0 0" fill="#e6e9ed"/><path d="m184 384.003906v32l-19.199219 5.28125c-1.359375 4.238282-3.039062 8.398438-5.121093 12.316406l9.84375 17.28125-22.640626 22.640626-17.28125-9.839844c-3.921874 2.078125-8.078124 3.757812-12.320312 5.121094l-5.28125 19.199218h-32l-5.277344-19.199218c-4.242187-1.363282-8.402344-3.042969-12.320312-5.121094l-17.28125 9.839844-22.640625-22.640626 9.839843-17.28125c-2.078124-3.917968-3.757812-8.078124-5.117187-12.316406l-19.203125-5.28125v-32l19.203125-5.28125c1.359375-4.238281 3.039063-8.398437 5.117187-12.320312l-9.839843-17.277344 22.640625-22.640625 17.28125 9.839844c3.917968-2.082031 8.078125-3.761719 12.320312-5.121094l5.277344-19.199219h32l5.28125 19.199219c4.242188 1.359375 8.398438 3.039063 12.320312 5.121094l17.28125-9.839844 22.640626 22.640625-9.84375 17.277344c2.082031 3.921875 3.761718 8.082031 5.121093 12.320312zm-48 16c0-22.082031-17.917969-40-40-40-22.078125 0-40 17.917969-40 40 0 22.078125 17.921875 40 40 40 22.082031 0 40-17.921875 40-40zm0 0" fill="#fcd770"/><path d="m298.082031 312.003906h123.839844c-7.121094 27.597656-32.082031 48-61.921875 48s-54.796875-20.402344-61.917969-48zm0 0" fill="#838f9b"/><path d="m424 280.003906c8.800781 0 16 7.199219 16 16 0 4.398438-1.757812 8.398438-4.71875 11.28125-2.878906 2.957032-6.878906 4.71875-11.28125 4.71875h-128c-8.796875 0-16-7.199218-16-16 0-4.402344 1.761719-8.402344 4.722656-11.28125 2.878906-2.960937 6.878906-4.71875 11.277344-4.71875zm0 0" fill="#aab2bd"/><path d="m424 248.003906c8.800781 0 16 7.199219 16 16 0 4.398438-1.757812 8.398438-4.71875 11.28125-2.878906 2.957032-6.878906 4.71875-11.28125 4.71875h-128c-8.796875 0-16-7.199218-16-16 0-4.402344 1.761719-8.402344 4.722656-11.28125 2.878906-2.960937 6.878906-4.71875 11.277344-4.71875zm0 0" fill="#aab2bd"/><path d="m488 136.003906c0 47.359375-25.757812 88.558594-64 110.71875v1.28125h-32v-144l-32-48-32 48v144h-32v-1.28125c-29.277344-16.960937-51.277344-45.121094-59.839844-78.71875-3.277344-12.320312-4.71875-25.441406-4-38.960937 1.363282-25.28125 10.320313-48.71875 24.5625-68.160157 22.320313-30.398437 57.597656-50.878906 97.117188-52.71875 73.523437-3.441406 134.160156 55.121094 134.160156 127.839844zm0 0" fill="#ffeaa7"/><path d="m392 104.003906v144h-32v-144zm0 0" fill="#b4dd7f"/><path d="m360 160.003906v88h-32v-144h32zm0 0" fill="#ffc729"/><path d="m360 56.003906 32 48h-64zm0 0" fill="#aab2bd"/><path d="m48 400.003906c0 26.472656 21.53125 48 48 48 26.472656 0 48-21.527344 48-48s-21.527344-48-48-48c-26.46875 0-48 21.527344-48 48zm48-32c17.648438 0 32 14.351563 32 32 0 17.648438-14.351562 32-32 32-17.644531 0-32-14.351562-32-32 0-17.648437 14.355469-32 32-32zm0 0"/><path d="m464 400.003906h-80c-8.824219 0-16-7.175781-16-16v-16.496094c27.464844-3.066406 50.875-21.65625 59.953125-47.90625 11.351563-1.894531 20.046875-11.71875 20.046875-23.597656 0-6.167968-2.40625-11.746094-6.238281-16 3.839843-4.257812 6.238281-9.832031 6.238281-16 0-7.214844-3.261719-13.617187-8.320312-18.023437 35.019531-25.425781 56.320312-66.371094 56.320312-109.976563 0-37.527344-14.957031-72.480468-42.117188-98.402344-27.144531-25.902343-62.785156-39.167968-100.394531-37.453124-39.125 1.832031-74.320312 20.871093-98.117187 49.582031-13.386719-8.984375-30.410156-12.015625-45.960938-7.792969-11.632812-25.382812-36.984375-41.93359375-65.410156-41.93359375-39.703125 0-72 32.29687475-72 71.99999975 0 2.894532.203125 5.773438.546875 8.640625-22.929687 3.597657-40.546875 23.429688-40.546875 47.359375 0 26.472656 21.53125 48 48 48h150.027344c8.574218 27.886719 26.046875 52.464844 50.285156 69.984375-5.046875 4.398438-8.3125 10.808594-8.3125 18.015625 0 6.167969 2.410156 11.742188 6.242188 16-3.839844 4.253906-6.242188 9.832032-6.242188 16 0 11.878906 8.699219 21.695313 20.042969 23.597656 9.085937 26.25 32.503906 44.839844 59.957031 47.90625v16.496094c0 17.648438 14.355469 32 32 32h80c8.824219 0 16 7.175782 16 16 0 8.824219-7.175781 16-16 16h-208c-8.824219 0-16-7.175781-16-16v-144c0-17.648437-14.351562-32-32-32h-88c-17.644531 0-32 14.351563-32 32v16h-14.109375l-5.746094 21c-1.839843.6875-3.671875 1.457032-5.480469 2.28125l-18.917968-10.800781-31.265625 31.261719 10.800781 18.921875c-.832031 1.808593-1.589844 3.632812-2.28125 5.480469l-21 5.742187v44.214844l21 5.746093c.691406 1.832032 1.457031 3.664063 2.289062 5.480469l-10.808593 18.917969 31.265625 31.265625 18.917968-10.800781c1.808594.832031 3.632813 1.59375 5.480469 2.28125l5.746094 21.007812h44.214844l5.746093-21c1.839844-.6875 3.671876-1.457031 5.476563-2.28125l18.921875 10.800782 31.261719-31.265626-10.804688-18.917968c.832031-1.816406 1.597657-3.640625 2.285157-5.480469l21.007812-5.746094v-44.214843l-21-5.742188c-.6875-1.839844-1.453125-3.671875-2.277344-5.480469l10.800782-18.921875-31.265626-31.261718-18.921874 10.800781c-1.804688-.832031-3.628907-1.59375-5.476563-2.28125l-5.746094-21.007813h-14.113281v-16c0-8.824218 7.175781-16 16-16h88c8.824219 0 16 7.175782 16 16v144c0 17.648438 14.355469 32 32 32h208c17.648438 0 32-14.351562 32-32 0-17.648437-14.351562-32-32-32zm-176-136c0-4.417968 3.585938-8 8-8h128c4.417969 0 8 3.582032 8 8 0 4.414063-3.582031 8-8 8h-128c-4.414062 0-8-3.585937-8-8zm54.945312-168 17.054688-25.578125 17.058594 25.578125zm-6.945312 16h16v32h16v-32h16v128h-16v-80h-16v80h-16zm-256 48c-17.644531 0-32-14.351562-32-32 0-17.648437 14.355469-32 32-32 17.648438 0 32 14.351563 32 32h16c0-23.464844-16.933594-43.015625-39.222656-47.160156-.464844-2.914062-.777344-5.863281-.777344-8.839844 0-30.871094 25.128906-56 56-56 24.234375 0 45.609375 15.488282 53.175781 38.527344l2.753907 8.359375 8.0625-3.527344c12.34375-5.398437 26.847656-3.9375 37.960937 3.304688-12.558594 19.3125-20.480469 41.832031-21.757813 65.941406-.570312 10.683594.175782 21.1875 2 31.402344h-146.195312zm160.175781-30.550781c3.226563-60.699219 53.328125-110.480469 114.066407-113.3125 33.167968-1.648437 64.640624 10.175781 88.589843 33.046875 23.976563 22.863281 37.167969 53.695312 37.167969 86.816406 0 42.589844-22.992188 82.367188-60.007812 103.816406l-.320313.183594h-19.671875v-138.425781l-40-60-40 60v138.425781h-19.671875l-.320313-.183594c-39.308593-22.777343-62.238281-65.066406-59.832031-110.367187zm55.824219 158.550781h128c4.417969 0 8 3.582032 8 8 0 4.414063-3.582031 8-8 8h-128c-4.414062 0-8-3.585937-8-8 0-4.417968 3.585938-8 8-8zm13.5625 32h100.878906c-9.121094 19.230469-28.550781 32-50.441406 32-21.886719 0-41.320312-12.769531-50.4375-32zm-198.863281 17.542969 4.191406 1.289063c3.710937 1.152343 7.398437 2.6875 10.949219 4.566406l3.890625 2.074218 15.839843-9.042968 13.984376 13.984375-9.042969 15.839843 2.074219 3.890626c1.878906 3.550781 3.421874 7.238281 4.566406 10.949218l1.289062 4.195313 17.558594 4.820312v19.785157l-17.542969 4.808593-1.289062 4.191407c-1.140625 3.695312-2.679688 7.386718-4.574219 10.960937l-2.0625 3.878906 9.039062 15.839844-13.984374 13.984375-15.839844-9.039062-3.886719 2.070312c-3.554687 1.882812-7.242187 3.425781-10.953125 4.570312l-4.191406 1.289063-4.824219 17.550781h-19.785156l-4.808594-17.542968-4.191406-1.289063c-3.710938-1.152344-7.398438-2.6875-10.953125-4.570313l-3.886719-2.070312-15.839844 9.039062-13.984375-13.984374 9.039063-15.839844-2.0625-3.878906c-1.894531-3.574219-3.441407-7.265626-4.578125-10.960938l-1.285156-4.191406-17.554688-4.824219v-19.785156l17.546875-4.804688 1.285156-4.195312c1.152344-3.710938 2.691407-7.398438 4.570313-10.949219l2.070312-3.890625-9.039062-15.839844 13.984375-13.984375 15.839843 9.042969 3.886719-2.074219c3.554688-1.878906 7.242188-3.421875 10.953125-4.566406l4.191406-1.289062 4.824219-17.550782h19.785157zm0 0"/><path d="m433.539062 209.539062c40.542969-40.542968 40.542969-106.527343 0-147.078124l-11.3125 11.308593c34.3125 34.3125 34.3125 90.144531 0 124.457031zm0 0"/></svg>