<svg id="Layer_1" enable-background="new 0 0 512 512" height="512" viewBox="0 0 512 512" width="512" xmlns="http://www.w3.org/2000/svg"><g><g><path d="m427.85 112.28v200.38c0 94.9-171.85 191.84-171.85 191.84s-2.68-1.52-7.38-4.35c-14.1-8.51-46.32-28.91-78.54-55.98-42.96-36.1-85.92-84.06-85.92-131.51v-200.38c0-10.27 8.02-18.8 18.27-19.34 86.32-4.56 153.57-41.07 153.57-85.44 0 .26 0 .52.01.77v.27c.003.164.016.33.021.494 1.524 43.673 68.228 79.396 153.539 83.906 10.26.54 18.28 9.07 18.28 19.34z" fill="#2bbb66"/><path d="m427.85 112.28v200.38c0 94.9-171.85 191.84-171.85 191.84s-2.68-1.52-7.38-4.35c31.22-20.94 162.38-113.89 162.38-197.49v-176.38c0-10.27-7.23-18.8-16.48-19.34-76.952-4.503-137.112-53.909-138.489-97.906 1.524 43.673 68.228 79.396 153.539 83.906 10.26.54 18.28 9.07 18.28 19.34z" fill="#249e55"/><g><path d="m365 123.07c-30.69-5.39-58.75-14.72-81.5-27.28-10.93-6.04-19.99-12.41-27.5-18.89-7.5 6.48-16.56 12.85-27.49 18.89-29.49 16.28-67.87 27.12-109.35 31.01v185.86c0 16.06 9.54 51.02 73.44 104.71 21.29 17.89 42.63 32.72 58 42.71 1.89 1.23 3.69 2.38 5.39 3.46 15.72-9.99 40.13-26.51 64.18-46.81 63.24-53.35 72.68-88.11 72.68-104.07v-185.86c-9.47-.89-18.77-2.14-27.85-3.73z" fill="#eef0f5"/></g><g><path d="m365 123.07v186.59c0 15.96-7.93 50.72-61.07 104.07-19.91 19.99-40.1 36.32-53.33 46.35 1.89 1.23 3.69 2.38 5.39 3.46 15.72-9.99 40.13-26.51 64.18-46.81 63.24-53.35 72.68-88.11 72.68-104.07v-185.86c-9.47-.89-18.77-2.14-27.85-3.73z" fill="#dae1ea"/></g></g><path d="m341 271.18v-30.36h-18.17c-1.74-7.68-4.77-14.87-8.85-21.34l12.86-12.85-21.47-21.47-12.85 12.86c-6.47-4.08-13.66-7.11-21.34-8.85v-18.17h-30.36v18.17c-7.68 1.74-14.87 4.77-21.34 8.85l-12.85-12.86-21.47 21.47 12.86 12.85c-4.08 6.47-7.11 13.66-8.85 21.34h-18.17v30.36h18.17c1.74 7.68 4.77 14.87 8.85 21.34l-12.86 12.85 21.47 21.47 12.85-12.86c6.46 4.08 13.66 7.11 21.34 8.85v18.17h30.36v-18.17c7.68-1.74 14.87-4.77 21.34-8.85l12.85 12.86 21.47-21.47-12.86-12.85c4.08-6.47 7.11-13.66 8.85-21.34zm-121.47-15.18c0-20.14 16.33-36.47 36.47-36.47s36.47 16.33 36.47 36.47-16.33 36.47-36.47 36.47-36.47-16.33-36.47-36.47z" fill="#99e7fa"/><path d="m322.83 271.18c-1.74 7.68-4.77 14.87-8.85 21.34l12.86 12.85-21.47 21.47-12.85-12.86c-6.47 4.08-13.66 7.11-21.34 8.85v18.17h-15.18v-27.5c29.08 0 52.65-25.74 52.65-57.5s-23.57-57.5-52.65-57.5v-27.5h15.18v18.17c7.68 1.74 14.87 4.77 21.34 8.85l12.85-12.86 21.47 21.47-12.86 12.85c4.08 6.47 7.11 13.66 8.85 21.34h18.17v30.36z" fill="#4dd4f7"/></g><g><path d="m427.844 305.156c-4.142 0-7.5 3.357-7.5 7.5 0 81.946-139.676 168.515-164.344 183.158-24.668-14.643-164.344-101.211-164.344-183.158v-54.128c0-4.143-3.358-7.5-7.5-7.5s-7.5 3.357-7.5 7.5v54.128c0 41.678 29.809 87.857 88.598 137.254 22.473 18.883 44.914 34.476 59.782 44.231 8.42 5.524 15.363 9.809 19.706 12.429 8.995 5.43 8.995 5.43 11.258 5.43 1.293 0 2.565-.335 3.691-.971 7.172-4.053 175.653-100.379 175.653-198.373 0-4.142-3.358-7.5-7.5-7.5z"/><path d="m409.966 85.453c-82.131-4.342-146.466-38.583-146.466-77.953 0-4.143-3.358-7.5-7.5-7.5s-7.5 3.357-7.5 7.5c0 39.37-64.335 73.611-146.465 77.953-14.231.752-25.379 12.537-25.379 26.831v111.731c0 4.143 3.358 7.5 7.5 7.5s7.5-3.357 7.5-7.5v-111.731c0-6.315 4.906-11.521 11.17-11.853 43.059-2.275 82.971-12.475 112.383-28.719 19.108-10.552 32.948-23.216 40.791-37.02 7.843 13.804 21.684 26.468 40.791 37.02 29.412 16.244 69.324 26.443 112.384 28.719 6.263.331 11.169 5.537 11.169 11.853v165.903c0 4.143 3.358 7.5 7.5 7.5s7.5-3.357 7.5-7.5v-165.903c0-14.294-11.147-26.079-25.378-26.831z"/><path d="m119.155 184.54c-4.142 0-7.5 3.357-7.5 7.5v120.616c0 21.215 13.205 57.6 76.113 110.457 24.084 20.236 48.204 36.598 64.196 46.76 1.228.78 2.625 1.17 4.022 1.17 1.398 0 2.796-.391 4.024-1.171 16.297-10.361 40.8-26.997 64.989-47.405 62.273-52.543 75.344-88.717 75.344-109.811v-185.852c0-3.87-2.945-7.105-6.799-7.467-40.319-3.787-78.114-14.482-106.424-30.116-9.916-5.477-18.737-11.531-26.218-17.995-2.816-2.434-6.991-2.435-9.807 0-7.482 6.465-16.304 12.519-26.218 17.995-28.31 15.634-66.105 26.329-106.424 30.116-3.854.361-6.799 3.597-6.799 7.467v30.102c0 4.143 3.358 7.5 7.5 7.5s7.5-3.357 7.5-7.5v-23.336c40.237-4.52 76.582-15.264 105.474-31.219 8.752-4.834 16.755-10.108 23.87-15.728 7.113 5.618 15.117 10.893 23.87 15.728 28.892 15.956 65.237 26.699 105.475 31.219v179.086c0 35.442-48.965 80.583-70.017 98.346-21.64 18.259-43.582 33.442-59.341 43.632-15.47-10-37.052-24.926-58.568-43.005-21.276-17.877-70.762-63.308-70.762-98.973v-120.616c0-4.143-3.358-7.5-7.5-7.5z"/><path d="m171 233.321c-4.142 0-7.5 3.357-7.5 7.5v30.356c0 4.143 3.358 7.5 7.5 7.5h12.423c1.357 4.35 3.104 8.562 5.226 12.602l-8.789 8.788c-1.406 1.406-2.197 3.314-2.197 5.304s.79 3.896 2.197 5.304l21.465 21.466c1.406 1.406 3.314 2.196 5.303 2.196s3.897-.79 5.303-2.197l8.789-8.788c4.04 2.121 8.252 3.867 12.602 5.225v12.423c0 4.143 3.358 7.5 7.5 7.5h30.356c4.142 0 7.5-3.357 7.5-7.5v-12.424c4.35-1.357 8.562-3.104 12.601-5.225l8.789 8.788c1.406 1.407 3.314 2.197 5.303 2.197s3.897-.79 5.303-2.196l21.465-21.466c1.407-1.407 2.197-3.314 2.197-5.304s-.79-3.896-2.197-5.304l-8.789-8.788c2.122-4.04 3.868-8.251 5.226-12.602h12.424c4.142 0 7.5-3.357 7.5-7.5v-30.356c0-4.143-3.358-7.5-7.5-7.5h-12.423c-1.357-4.35-3.104-8.561-5.226-12.601l8.789-8.789c1.407-1.407 2.197-3.314 2.197-5.304s-.79-3.896-2.197-5.304l-21.465-21.465c-2.929-2.928-7.678-2.928-10.606 0l-8.789 8.79c-4.04-2.122-8.251-3.868-12.601-5.226v-12.421c0-4.143-3.358-7.5-7.5-7.5h-30.356c-4.142 0-7.5 3.357-7.5 7.5v12.424c-4.35 1.357-8.562 3.104-12.602 5.226l-8.789-8.789c-1.406-1.407-3.314-2.197-5.303-2.197s-3.897.79-5.303 2.196l-21.465 21.465c-1.407 1.407-2.197 3.314-2.197 5.304s.79 3.896 2.197 5.304l8.789 8.789c-2.122 4.039-3.869 8.25-5.226 12.601h-12.424zm18.167 15c3.504 0 6.541-2.427 7.315-5.844 1.526-6.741 4.176-13.131 7.876-18.992 1.871-2.964 1.44-6.829-1.039-9.308l-7.55-7.55 10.859-10.858 7.55 7.55c2.478 2.479 6.342 2.91 9.306 1.04 5.864-3.701 12.254-6.351 18.993-7.875 3.418-.773 5.845-3.811 5.845-7.315v-10.669h15.356v10.669c0 3.505 2.427 6.542 5.845 7.315 6.74 1.524 13.129 4.174 18.992 7.874 2.964 1.871 6.829 1.44 9.307-1.038l7.55-7.551 10.859 10.858-7.55 7.55c-2.479 2.479-2.91 6.343-1.039 9.307 3.701 5.864 6.351 12.253 7.875 18.991.773 3.419 3.811 5.846 7.315 5.846h10.668v15.356h-10.667c-3.504 0-6.541 2.427-7.315 5.844-1.526 6.742-4.176 13.132-7.876 18.994-1.871 2.964-1.439 6.828 1.039 9.307l7.55 7.549-10.859 10.859-7.55-7.55c-2.478-2.479-6.343-2.91-9.307-1.039-5.862 3.7-12.252 6.35-18.992 7.874-3.418.773-5.845 3.811-5.845 7.315v10.67h-15.356v-10.669c0-3.505-2.427-6.542-5.845-7.315-6.741-1.524-13.131-4.174-18.992-7.874-2.965-1.871-6.828-1.44-9.307 1.039l-7.55 7.55-10.858-10.859 7.55-7.549c2.478-2.479 2.91-6.343 1.039-9.307-3.701-5.864-6.351-12.255-7.875-18.992-.773-3.419-3.811-5.846-7.315-5.846h-10.669v-15.356h10.667z"/><path d="m256 299.965c10.391 0 20.475-3.692 28.394-10.397 3.161-2.676 3.554-7.408.878-10.57-2.676-3.159-7.409-3.554-10.57-.877-5.213 4.414-11.855 6.845-18.702 6.845-15.972 0-28.965-12.993-28.965-28.965s12.994-28.965 28.965-28.965 28.965 12.993 28.965 28.965c0 4.143 3.358 7.5 7.5 7.5s7.5-3.357 7.5-7.5c0-24.242-19.723-43.965-43.965-43.965s-43.965 19.722-43.965 43.964 19.722 43.965 43.965 43.965z"/></g></svg>