<svg id="Layer_1" enable-background="new 0 0 512 512" height="512" viewBox="0 0 512 512" width="512" xmlns="http://www.w3.org/2000/svg"><g><g><path d="m7.5 372.09h132.42v132.41h-132.42z" fill="#f9d11f"/><path d="m52.665 433.208 21.045-10.166 21.045 10.166v-61.113h-42.09z" fill="#ff4656"/><path d="m139.92 372.09v132.41h-132.42v-20h100.95c5.78 0 10.47-4.69 10.47-10.47v-101.94z" fill="#ffa402"/></g><g><path d="m189.788 372.09h132.42v132.41h-132.42z" fill="#f9d11f"/><path d="m234.952 433.208 21.046-10.166 21.045 10.166v-61.113h-42.091z" fill="#ff4656"/><path d="m322.208 372.09v132.41h-132.42v-20h100.95c5.78 0 10.47-4.69 10.47-10.47v-101.94z" fill="#ffa402"/></g><g><path d="m372.08 372.09h132.42v132.41h-132.42z" fill="#f9d11f"/><path d="m417.245 433.208 21.045-10.166 21.045 10.166v-61.113h-42.09z" fill="#ff4656"/><path d="m504.5 372.09v132.41h-132.42v-20h100.95c5.78 0 10.47-4.69 10.47-10.47v-101.94z" fill="#ffa402"/></g><g><path d="m280.341 7.696h132.42v132.41h-132.42z" fill="#f9d11f"/><path d="m325.505 68.814 21.046-10.166 21.045 10.166v-61.113h-42.091z" fill="#ff4656"/><path d="m412.761 7.696v132.41h-132.42v-20h100.95c5.78 0 10.47-4.69 10.47-10.47v-101.94z" fill="#ffa402"/></g><g><path d="m99.235 7.51h132.42v132.41h-132.42z" fill="#f9d11f"/><path d="m144.4 68.628 21.045-10.166 21.046 10.166v-61.113h-42.091z" fill="#ff4656"/><path d="m231.655 7.51v132.41h-132.42v-20h100.95c5.78 0 10.47-4.69 10.47-10.47v-101.94z" fill="#ffa402"/></g></g><g><path d="m99.239 147.42h132.416c4.143 0 7.5-3.357 7.5-7.5v-132.42c0-4.143-3.357-7.5-7.5-7.5h-132.416c-4.143 0-7.5 3.357-7.5 7.5v60.662c0 4.143 3.357 7.5 7.5 7.5s7.5-3.357 7.5-7.5v-53.162h30.163v53.621c0 2.581 1.327 4.981 3.514 6.353s4.925 1.523 7.249.4l17.782-8.591 17.783 8.591c1.034.5 2.149.747 3.263.747 1.389 0 2.772-.386 3.986-1.147 2.187-1.372 3.514-3.771 3.514-6.353v-53.621h30.162v117.42h-117.416v-29.764c0-4.143-3.357-7.5-7.5-7.5s-7.5 3.357-7.5 7.5v37.264c0 4.143 3.358 7.5 7.5 7.5zm79.754-90.751-10.283-4.968c-1.031-.498-2.146-.747-3.263-.747s-2.232.249-3.263.747l-10.282 4.967v-41.668h27.091z"/><path d="m183.239 110.156c4.143 0 7.5-3.357 7.5-7.5s-3.357-7.5-7.5-7.5h-35.584c-4.143 0-7.5 3.357-7.5 7.5s3.357 7.5 7.5 7.5z"/><path d="m280.345 147.605h132.416c4.143 0 7.5-3.357 7.5-7.5v-132.419c0-4.143-3.357-7.5-7.5-7.5h-132.416c-4.143 0-7.5 3.357-7.5 7.5v132.42c0 4.142 3.357 7.499 7.5 7.499zm79.753-132.419v41.668l-10.282-4.967c-2.063-.996-4.465-.996-6.525 0l-10.283 4.968v-41.669zm-72.253 0h30.162v53.621c0 2.581 1.327 4.98 3.514 6.353 1.214.762 2.598 1.147 3.986 1.147 1.113 0 2.229-.247 3.263-.747l17.783-8.591 17.782 8.591c2.324 1.124 5.062.972 7.249-.4 2.187-1.371 3.514-3.771 3.514-6.353v-53.621h30.163v117.42h-117.416z"/><path d="m364.345 95.343h-35.584c-4.143 0-7.5 3.357-7.5 7.5s3.357 7.5 7.5 7.5h35.584c4.143 0 7.5-3.357 7.5-7.5s-3.358-7.5-7.5-7.5z"/><path d="m322.208 364.58h-132.416c-4.143 0-7.5 3.357-7.5 7.5v132.42c0 4.143 3.357 7.5 7.5 7.5h132.416c4.143 0 7.5-3.357 7.5-7.5v-76.443c0-4.143-3.357-7.5-7.5-7.5s-7.5 3.357-7.5 7.5v68.943h-117.416v-117.42h30.163v53.621c0 2.581 1.327 4.981 3.514 6.353s4.925 1.524 7.249.4l17.782-8.591 17.782 8.591c1.034.5 2.149.747 3.263.747 1.389 0 2.772-.386 3.986-1.147 2.187-1.371 3.514-3.771 3.514-6.353v-53.621h30.163v14.266c0 4.143 3.357 7.5 7.5 7.5s7.5-3.357 7.5-7.5v-21.766c0-4.142-3.357-7.5-7.5-7.5zm-52.663 56.668-10.282-4.967c-1.03-.498-2.146-.747-3.263-.747s-2.232.249-3.263.747l-10.282 4.967v-41.668h27.09z"/><path d="m273.792 459.736h-35.584c-4.143 0-7.5 3.357-7.5 7.5s3.357 7.5 7.5 7.5h35.584c4.143 0 7.5-3.357 7.5-7.5s-3.357-7.5-7.5-7.5z"/><path d="m139.916 364.58h-132.416c-4.143 0-7.5 3.357-7.5 7.5v132.42c0 4.143 3.357 7.5 7.5 7.5h132.416c4.143 0 7.5-3.357 7.5-7.5v-132.42c0-4.142-3.357-7.5-7.5-7.5zm-52.663 15v41.668l-10.282-4.967c-2.063-.996-4.465-.996-6.525 0l-10.283 4.968v-41.669zm45.163 117.42h-117.416v-117.42h30.162v53.621c0 2.581 1.327 4.98 3.514 6.353 1.214.762 2.598 1.147 3.986 1.147 1.113 0 2.229-.247 3.263-.747l17.783-8.591 17.782 8.591c2.324 1.124 5.062.972 7.249-.4 2.187-1.371 3.514-3.771 3.514-6.353v-53.621h30.163z"/><path d="m91.5 459.736h-35.584c-4.143 0-7.5 3.357-7.5 7.5s3.357 7.5 7.5 7.5h35.584c4.143 0 7.5-3.357 7.5-7.5s-3.357-7.5-7.5-7.5z"/><path d="m504.5 364.58h-132.416c-4.143 0-7.5 3.357-7.5 7.5v132.42c0 4.143 3.357 7.5 7.5 7.5h132.416c4.143 0 7.5-3.357 7.5-7.5v-132.42c0-4.142-3.357-7.5-7.5-7.5zm-52.662 15v41.669l-10.283-4.968c-1.031-.498-2.146-.747-3.263-.747s-2.232.249-3.263.747l-10.282 4.967v-41.668zm45.162 117.42h-117.416v-117.42h30.163v53.621c0 2.581 1.327 4.981 3.514 6.353 2.188 1.372 4.925 1.524 7.249.4l17.782-8.591 17.783 8.591c1.034.5 2.149.747 3.263.747 1.389 0 2.772-.386 3.986-1.147 2.187-1.372 3.514-3.771 3.514-6.353v-53.621h30.162z"/><path d="m456.084 459.736h-35.584c-4.143 0-7.5 3.357-7.5 7.5s3.357 7.5 7.5 7.5h35.584c4.143 0 7.5-3.357 7.5-7.5s-3.357-7.5-7.5-7.5z"/><path d="m73.708 284.805c4.143 0 7.5-3.357 7.5-7.5v-13.548h13.545c4.143 0 7.5-3.357 7.5-7.5s-3.357-7.5-7.5-7.5h-21.045c-4.143 0-7.5 3.357-7.5 7.5v21.048c0 4.142 3.357 7.5 7.5 7.5z"/><path d="m73.708 345.858c4.143 0 7.5-3.357 7.5-7.5v-31.05c0-4.143-3.357-7.5-7.5-7.5s-7.5 3.357-7.5 7.5v31.05c0 4.143 3.357 7.5 7.5 7.5z"/><path d="m124.133 248.757c-4.143 0-7.5 3.357-7.5 7.5s3.357 7.5 7.5 7.5h12.045c4.143 0 7.5-3.357 7.5-7.5s-3.357-7.5-7.5-7.5z"/><path d="m409.747 256.257c0 4.143 3.357 7.5 7.5 7.5h13.545v13.548c0 4.143 3.357 7.5 7.5 7.5s7.5-3.357 7.5-7.5v-21.048c0-4.143-3.357-7.5-7.5-7.5h-21.045c-4.143 0-7.5 3.357-7.5 7.5z"/><path d="m438.292 299.809c-4.143 0-7.5 3.357-7.5 7.5v31.05c0 4.143 3.357 7.5 7.5 7.5s7.5-3.357 7.5-7.5v-31.05c0-4.143-3.357-7.5-7.5-7.5z"/><path d="m375.822 248.757c-4.143 0-7.5 3.357-7.5 7.5s3.357 7.5 7.5 7.5h12.045c4.143 0 7.5-3.357 7.5-7.5s-3.357-7.5-7.5-7.5z"/><path d="m193.993 256.257c0-4.143-3.357-7.5-7.5-7.5h-13.546v-13.548c0-4.143-3.357-7.5-7.5-7.5s-7.5 3.357-7.5 7.5v21.048c0 4.143 3.357 7.5 7.5 7.5h21.046c4.143 0 7.5-3.358 7.5-7.5z"/><path d="m157.947 174.155v31.05c0 4.143 3.357 7.5 7.5 7.5s7.5-3.357 7.5-7.5v-31.05c0-4.143-3.357-7.5-7.5-7.5s-7.5 3.358-7.5 7.5z"/><path d="m346.553 227.709c-4.143 0-7.5 3.357-7.5 7.5v13.548h-13.546c-4.143 0-7.5 3.357-7.5 7.5s3.357 7.5 7.5 7.5h21.046c4.143 0 7.5-3.357 7.5-7.5v-21.048c0-4.143-3.358-7.5-7.5-7.5z"/><path d="m346.553 166.655c-4.143 0-7.5 3.357-7.5 7.5v31.05c0 4.143 3.357 7.5 7.5 7.5s7.5-3.357 7.5-7.5v-31.05c0-4.142-3.358-7.5-7.5-7.5z"/><path d="m211.386 256.257c0 4.143 3.357 7.5 7.5 7.5h21.046c4.143 0 7.5-3.357 7.5-7.5s-3.357-7.5-7.5-7.5h-21.046c-4.143 0-7.5 3.357-7.5 7.5z"/><path d="m272.068 263.757h21.046c4.143 0 7.5-3.357 7.5-7.5s-3.357-7.5-7.5-7.5h-21.046c-4.143 0-7.5 3.357-7.5 7.5s3.358 7.5 7.5 7.5z"/></g></svg>